<svg width="35" height="13" viewBox="0 0 35 13" fill="none" xmlns="http://www.w3.org/2000/svg">
<path d="M1.63428 9.91406H0.034668V0.671875H1.63428V9.91406ZM4.90967 3.0459L4.9541 3.76318C5.43652 3.20036 6.09668 2.91895 6.93457 2.91895C7.85286 2.91895 8.48128 3.27018 8.81982 3.97266C9.31917 3.27018 10.0216 2.91895 10.9272 2.91895C11.6847 2.91895 12.2476 3.12842 12.6157 3.54736C12.9881 3.96631 13.1785 4.58415 13.187 5.40088V9.91406H11.6445V5.44531C11.6445 5.00944 11.5493 4.68994 11.3589 4.48682C11.1685 4.28369 10.8532 4.18213 10.4131 4.18213C10.0618 4.18213 9.77409 4.27734 9.5498 4.46777C9.32975 4.65397 9.17529 4.89941 9.08643 5.2041L9.09277 9.91406H7.55029V5.39453C7.52913 4.58626 7.11654 4.18213 6.3125 4.18213C5.69466 4.18213 5.25667 4.43392 4.99854 4.9375V9.91406H3.45605V3.0459H4.90967ZM18.8745 9.91406C18.8068 9.78288 18.7476 9.56917 18.6968 9.27295C18.2059 9.78499 17.605 10.041 16.894 10.041C16.2043 10.041 15.6414 9.84424 15.2056 9.45068C14.7697 9.05713 14.5518 8.57048 14.5518 7.99072C14.5518 7.25863 14.8226 6.69792 15.3643 6.30859C15.9102 5.91504 16.6888 5.71826 17.7002 5.71826H18.646V5.26758C18.646 4.91211 18.5465 4.62858 18.3477 4.41699C18.1488 4.20117 17.8462 4.09326 17.4399 4.09326C17.0887 4.09326 16.8009 4.18213 16.5767 4.35986C16.3524 4.53337 16.2402 4.75553 16.2402 5.02637H14.6978C14.6978 4.64974 14.8226 4.2985 15.0723 3.97266C15.3219 3.64258 15.6605 3.38444 16.0879 3.19824C16.5195 3.01204 16.9998 2.91895 17.5288 2.91895C18.3328 2.91895 18.974 3.12207 19.4521 3.52832C19.9303 3.93034 20.1758 4.4974 20.1885 5.22949V8.32715C20.1885 8.94499 20.2752 9.43799 20.4487 9.80615V9.91406H18.8745ZM17.1797 8.80322C17.4844 8.80322 17.77 8.72917 18.0366 8.58105C18.3075 8.43294 18.5106 8.23405 18.646 7.98438V6.68945H17.8145C17.2432 6.68945 16.8136 6.7889 16.5259 6.98779C16.2381 7.18669 16.0942 7.4681 16.0942 7.83203C16.0942 8.12826 16.1916 8.36523 16.3862 8.54297C16.5851 8.71647 16.8496 8.80322 17.1797 8.80322ZM21.5342 6.4292C21.5342 5.36279 21.7839 4.51221 22.2832 3.87744C22.7868 3.23844 23.4533 2.91895 24.2827 2.91895C25.0656 2.91895 25.6813 3.19189 26.1299 3.73779L26.1997 3.0459H27.5898V9.70459C27.5898 10.606 27.3084 11.3169 26.7456 11.8374C26.187 12.3579 25.4316 12.6182 24.4795 12.6182C23.9759 12.6182 23.4829 12.5124 23.0005 12.3008C22.5223 12.0934 22.1584 11.8205 21.9087 11.4819L22.6387 10.5552C23.1126 11.118 23.6966 11.3994 24.3906 11.3994C24.9027 11.3994 25.3068 11.2598 25.603 10.9805C25.8993 10.7054 26.0474 10.2992 26.0474 9.76172V9.29834C25.603 9.79346 25.0106 10.041 24.27 10.041C23.466 10.041 22.8079 9.72152 22.2959 9.08252C21.7881 8.44352 21.5342 7.55908 21.5342 6.4292ZM23.0703 6.5625C23.0703 7.25228 23.21 7.79606 23.4893 8.19385C23.7728 8.5874 24.1642 8.78418 24.6636 8.78418C25.2856 8.78418 25.7469 8.51758 26.0474 7.98438V4.96289C25.7554 4.44238 25.2983 4.18213 24.6763 4.18213C24.1685 4.18213 23.7728 4.38314 23.4893 4.78516C23.21 5.18717 23.0703 5.77962 23.0703 6.5625ZM32.2046 10.041C31.2271 10.041 30.4336 9.73421 29.8242 9.12061C29.2191 8.50277 28.9165 7.6818 28.9165 6.65771V6.46729C28.9165 5.78174 29.0477 5.17025 29.3101 4.63281C29.5767 4.09115 29.9491 3.67008 30.4272 3.36963C30.9054 3.06917 31.4386 2.91895 32.0269 2.91895C32.9621 2.91895 33.6836 3.21729 34.1914 3.81396C34.7035 4.41064 34.9595 5.25488 34.9595 6.34668V6.96875H30.4717C30.5182 7.53581 30.7065 7.98438 31.0366 8.31445C31.3709 8.64453 31.7899 8.80957 32.2935 8.80957C33.0002 8.80957 33.5757 8.52393 34.02 7.95264L34.8516 8.74609C34.5765 9.15658 34.2083 9.47607 33.7471 9.70459C33.29 9.92887 32.7759 10.041 32.2046 10.041ZM32.0205 4.15674C31.5973 4.15674 31.2546 4.30485 30.9922 4.60107C30.734 4.8973 30.569 5.3099 30.4971 5.83887H33.436V5.72461C33.4022 5.20833 33.2646 4.81901 33.0234 4.55664C32.7822 4.29004 32.4479 4.15674 32.0205 4.15674Z" fill="#0184FF"/>
</svg>
